<svg width="16" height="16" viewBox="0 0 16 16" fill="none" xmlns="http://www.w3.org/2000/svg">
<path d="M1.04375 3.555C1.13197 3.11324 1.34882 2.71881 1.65881 2.43631C1.96879 2.1538 2.35352 1.99997 2.75 2H13.25C13.6465 1.99997 14.0312 2.1538 14.3412 2.43631C14.6512 2.71881 14.868 3.11324 14.9563 3.555L8 8.414L1.04375 3.555ZM1 4.697V11.801L6.07762 8.243L1 4.697ZM6.91588 8.83L1.16713 12.857C1.30916 13.1993 1.53334 13.4884 1.81356 13.6908C2.09378 13.8931 2.41853 14.0004 2.75 14H13.25C13.5814 14.0001 13.906 13.8926 14.1861 13.6901C14.4662 13.4876 14.6902 13.1983 14.832 12.856L9.08325 8.829L8 9.586L6.91588 8.83ZM9.92237 8.244L15 11.801V4.697L9.92237 8.243V8.244Z" fill="#ADADAD"/>
</svg>
