<svg width="16" height="16" viewBox="0 0 16 16" fill="none" xmlns="http://www.w3.org/2000/svg">
<g clip-path="url(#clip0_1_2)">
<path d="M8 1C8.74261 1 9.4548 1.21071 9.9799 1.58579C10.505 1.96086 10.8 2.46957 10.8 3V7H5.2V3C5.2 2.46957 5.495 1.96086 6.0201 1.58579C6.5452 1.21071 7.25739 1 8 1ZM12.2 7V3C12.2 2.20435 11.7575 1.44129 10.9698 0.87868C10.1822 0.31607 9.11391 0 8 0C6.88609 0 5.8178 0.31607 5.03015 0.87868C4.2425 1.44129 3.8 2.20435 3.8 3V7C3.05739 7 2.3452 7.21071 1.8201 7.58579C1.295 7.96086 1 8.46957 1 9V14C1 14.5304 1.295 15.0391 1.8201 15.4142C2.3452 15.7893 3.05739 16 3.8 16H12.2C12.9426 16 13.6548 15.7893 14.1799 15.4142C14.705 15.0391 15 14.5304 15 14V9C15 8.46957 14.705 7.96086 14.1799 7.58579C13.6548 7.21071 12.9426 7 12.2 7Z" fill="#ADADAD"/>
<path d="M6.70225 10.8727L8 14.3333L9.29775 10.8727C9.63754 9.96656 8.96771 9 8 9C7.03229 9 6.36246 9.96656 6.70225 10.8727Z" fill="white"/>
</g>
<defs>
<clipPath id="clip0_1_2">
<rect width="16" height="16" fill="white"/>
</clipPath>
</defs>
</svg>
